<svg width="182" height="121" viewBox="0 0 182 121" fill="none" xmlns="http://www.w3.org/2000/svg">
    <mask id="mask0_150_1060" style="" maskUnits="userSpaceOnUse" x="0" y="91" width="182" height="90">
        <path d="M0 91.166H181.516V120.738H0V91.166Z" fill="#00BF63" />
    </mask>

    <path
        d="M116.946 113.492H64.5696C64.2107 113.492 63.9766 113.113 64.1431 112.79L68.1744 105.029C68.2577 104.873 68.4241 104.774 68.601 104.774H112.915C113.092 104.774 113.258 104.873 113.341 105.029L117.373 112.79C117.534 113.113 117.305 113.492 116.946 113.492ZM180.356 114.372L158.67 92.6854C157.926 91.9415 156.922 91.5254 155.876 91.5254H25.6395C24.5888 91.5254 23.5848 91.9415 22.8462 92.6854L1.15479 114.372C0.416143 115.115 0 116.119 0 117.165C0 119.344 1.7686 121.113 3.94815 121.113H177.568C179.747 121.113 181.516 119.344 181.516 117.165C181.516 116.119 181.1 115.115 180.356 114.372Z"
        fill="#00BF63" />

    <mask id="mask1_150_1060" style="mask-type:luminance" maskUnits="userSpaceOnUse" x="23" y="0" width="136"
        height="85">
        <path d="M23.7305 0H158.228V84.945H23.7305V0Z" fill="#00BF63" />
    </mask>

    <path
        d="M151.017 0.0419922H30.4923C27.0071 0.0419922 24.1514 2.89777 24.1514 6.38295V77.9386C24.1514 81.4289 27.0071 84.2795 30.4923 84.2795H151.017C154.508 84.2795 157.358 81.4289 157.358 77.9386V6.38295C157.358 2.89777 154.508 0.0419922 151.017 0.0419922ZM150.024 7.38169V76.9398H31.4911V7.38169H150.024Z"
        fill="#00BF63" />

</svg>