<svg xmlns="http://www.w3.org/2000/svg" xmlns:xlink="http://www.w3.org/1999/xlink" width="1080" zoomAndPan="magnify" viewBox="0 0 810 809.999993" height="1080" preserveAspectRatio="xMidYMid meet" version="1.0"><defs><clipPath id="715efeaa89"><path d="M 0 0 L 559.910156 0 L 559.910156 809 L 0 809 Z M 0 0 " clip-rule="nonzero"/></clipPath></defs><g clip-path="url(#715efeaa89)"><path fill="#02ac5a" d="M 41.589844 207.980469 C 21.855469 217.113281 7.011719 230.976562 0 248.589844 C 5.871094 216.460938 37.023438 192.972656 76.65625 183.351562 C 100.304688 177.316406 126.890625 175.523438 154.289062 176.992188 C 163.75 177.480469 173.371094 178.460938 183.15625 179.765625 C 167.175781 172.75 147.113281 171.445312 126.890625 175.523438 C 140.589844 169.324219 155.59375 165.25 169.945312 164.269531 C 169.621094 164.105469 169.457031 164.105469 169.132812 163.945312 C 167.828125 163.292969 166.519531 162.636719 165.214844 162.148438 C 164.5625 161.824219 163.75 161.496094 163.097656 161.332031 C 162.28125 161.171875 161.628906 161.007812 160.8125 160.84375 C 147.929688 158.398438 117.917969 164.597656 117.753906 163.945312 C 117.59375 163.617188 117.753906 163.128906 118.082031 162.800781 C 125.257812 155.625 135.371094 150.082031 145.480469 146.816406 C 131.457031 146.003906 116.777344 148.777344 101.933594 153.179688 C 111.394531 148.449219 121.507812 144.207031 131.945312 141.273438 C 116.613281 141.109375 103.078125 141.4375 86.441406 144.371094 C 95.738281 134.421875 109.925781 128.714844 122.976562 126.105469 C 117.101562 123.332031 108.785156 123.984375 98.671875 127.246094 C 95.738281 128.226562 92.3125 129.203125 89.214844 130.183594 C 87.09375 130.996094 77.960938 132.957031 78.9375 132.300781 C 80.894531 130.996094 85.789062 127.574219 87.582031 126.429688 C 90.519531 124.636719 93.78125 122.679688 96.714844 121.050781 L 98.511719 120.070312 C 84.15625 118.113281 68.5 118.765625 52.191406 122.355469 C 60.671875 117.296875 69.96875 113.058594 79.589844 109.304688 C 64.421875 107.023438 47.789062 109.144531 31.476562 115.015625 C 38.652344 110.285156 46.320312 105.882812 54.636719 102.457031 C 54.472656 102.457031 54.3125 102.457031 54.148438 102.457031 C 51.375 102.292969 48.441406 102.292969 45.667969 102.128906 C 42.730469 102.128906 39.796875 102.128906 36.859375 102.128906 C 33.925781 102.128906 30.824219 102.292969 27.726562 102.292969 C 30.5 100.660156 33.433594 99.03125 36.535156 97.5625 C 39.46875 96.257812 42.566406 94.789062 45.667969 93.648438 C 48.765625 92.507812 51.863281 91.367188 55.125 90.386719 C 117.59375 71.46875 175.328125 94.789062 205.5 134.261719 C 222.136719 64.945312 261.769531 16.339844 308.742188 0.847656 C 296.347656 9.652344 284.929688 20.253906 274.980469 33.464844 C 276.773438 32 278.894531 30.695312 280.851562 29.390625 C 283.949219 27.433594 287.210938 25.964844 290.476562 24.820312 C 295.855469 23.027344 301.238281 22.050781 306.785156 22.050781 C 307.109375 22.050781 307.4375 22.539062 307.4375 23.027344 C 307.4375 23.515625 297.652344 30.042969 293.410156 33.792969 C 291.289062 35.75 289.171875 37.707031 287.210938 39.988281 L 285.746094 41.621094 L 284.277344 43.253906 C 283.296875 44.394531 282.320312 45.535156 281.503906 46.675781 C 280.199219 48.308594 278.894531 50.265625 277.753906 52.222656 C 285.582031 49.9375 293.898438 49.613281 302.378906 53.527344 C 289.660156 61.519531 277.589844 68.207031 265.195312 76.6875 C 274.980469 76.035156 285.253906 79.621094 294.878906 85.492188 C 282.808594 84.027344 271.066406 87.125 261.769531 95.933594 C 268.457031 95.933594 279.058594 98.214844 279.058594 99.03125 C 279.058594 99.519531 278.570312 100.171875 278.570312 100.171875 C 271.882812 103.433594 266.011719 108.164062 260.140625 113.382812 C 256.0625 117.296875 251.332031 121.050781 247.582031 125.617188 C 247.742188 125.617188 247.742188 125.617188 247.90625 125.617188 C 261.769531 111.589844 278.078125 102.621094 299.117188 94.464844 C 330.921875 81.417969 367.128906 79.460938 398.117188 93.648438 C 402.683594 95.605469 407.25 98.214844 411.492188 100.988281 C 413.613281 102.292969 415.734375 103.925781 417.691406 105.390625 C 418.34375 105.71875 418.503906 106.535156 418.34375 107.347656 C 418.015625 108.164062 392.574219 100.824219 380.667969 100.171875 C 389.964844 105.066406 398.28125 112.730469 404.316406 121.539062 C 404.480469 121.863281 404.640625 122.355469 404.316406 122.679688 C 403.988281 123.167969 390.617188 116.15625 384.253906 114.199219 C 376.914062 111.914062 369.578125 110.773438 362.074219 110.9375 C 370.066406 115.667969 377.730469 122.191406 382.296875 130.671875 C 382.460938 131.160156 382.625 131.648438 382.296875 132.140625 C 380.832031 132.464844 361.746094 124.3125 354.410156 124.636719 C 355.386719 125.777344 356.367188 126.921875 357.179688 128.0625 L 360.605469 132.628906 C 362.074219 134.914062 363.707031 137.523438 365.171875 139.96875 C 365.988281 141.597656 368.273438 145.839844 369.085938 147.46875 C 367.78125 146.164062 364.519531 143.066406 363.214844 141.761719 C 361.257812 140.132812 358.976562 138.335938 357.019531 136.707031 L 352.613281 133.769531 C 342.664062 128.0625 334.023438 126.429688 327.496094 126.59375 C 338.425781 132.628906 348.210938 141.4375 355.875 151.386719 C 345.925781 144.371094 335.164062 139.480469 323.582031 137.195312 C 329.78125 141.597656 340.546875 153.34375 340.382812 153.832031 C 339.894531 154.484375 319.34375 146.492188 310.863281 145.839844 C 318.527344 150.082031 325.539062 155.460938 331.738281 161.332031 C 321.300781 155.460938 310.210938 151.710938 298.957031 150.082031 C 304.339844 154.808594 308.742188 160.84375 311.351562 167.207031 C 311.675781 167.207031 311.839844 167.207031 312.167969 167.367188 C 335.328125 172.914062 357.671875 182.375 377.40625 195.421875 C 405.785156 214.828125 428.617188 241.414062 446.882812 269.628906 C 447.210938 270.28125 447.210938 270.933594 446.722656 271.585938 C 446.070312 272.238281 437.261719 264.410156 433.511719 260.984375 C 435.140625 264.085938 436.609375 267.183594 437.585938 270.445312 C 437.75 270.773438 437.261719 271.261719 436.933594 270.933594 C 428.292969 263.59375 420.789062 256.582031 413.125 248.589844 C 417.527344 258.539062 420.136719 269.628906 420.789062 280.230469 C 414.589844 263.757812 403.988281 249.078125 389.472656 239.292969 C 393.878906 249.730469 396.324219 261.636719 395.671875 272.890625 C 395.347656 273.054688 386.050781 259.679688 382.625 254.136719 C 379.199219 248.101562 371.859375 235.542969 368.433594 229.671875 C 372.511719 241.089844 374.632812 253.808594 371.695312 265.714844 C 371.695312 265.714844 368.433594 250.710938 365.5 243.859375 C 364.195312 240.4375 362.5625 237.171875 360.605469 234.074219 C 358.8125 230.8125 356.855469 227.878906 354.734375 224.941406 C 351.308594 220.046875 346.742188 216.132812 342.828125 211.566406 C 342.828125 211.566406 342.828125 211.566406 342.828125 211.730469 C 351.636719 225.269531 357.671875 241.089844 359.789062 256.746094 C 356.367188 248.265625 351.960938 240.4375 346.742188 233.421875 C 346.90625 240.273438 345.925781 246.796875 344.621094 253.320312 C 344.460938 253.808594 344.296875 254.136719 343.808594 254.300781 C 343.15625 254.625 336.632812 240.273438 333.367188 234.5625 C 330.269531 229.019531 326.84375 223.964844 323.09375 220.210938 C 327.007812 228.53125 327.988281 238.316406 327.007812 247.285156 C 325.378906 233.097656 317.546875 220.539062 305.316406 213.363281 C 309.066406 222.984375 310.371094 234.5625 307.4375 244.1875 C 313.144531 251.527344 318.039062 259.519531 322.277344 268.160156 C 323.582031 270.773438 324.726562 273.542969 326.03125 276.316406 C 327.171875 279.089844 328.3125 281.863281 329.292969 284.636719 C 337.445312 306.816406 341.851562 331.445312 342.992188 356.558594 C 343.15625 358.355469 343.15625 360.3125 343.15625 362.105469 C 344.132812 362.921875 345.113281 363.898438 346.089844 364.714844 C 357.34375 375.804688 365.664062 390.8125 370.390625 406.792969 C 369.902344 392.441406 364.195312 378.414062 354.570312 367.488281 C 362.890625 372.871094 370.230469 380.046875 375.449219 388.527344 C 375.449219 388.363281 375.449219 388.039062 375.449219 387.875 C 375.449219 386.734375 375.449219 385.589844 375.285156 384.449219 C 375.285156 383.796875 375.121094 383.308594 375.121094 382.65625 C 374.957031 382.167969 374.796875 381.515625 374.632812 381.023438 C 371.859375 371.726562 358.324219 356.070312 358.648438 355.746094 C 358.8125 355.417969 359.136719 355.417969 359.464844 355.417969 C 366.152344 356.070312 373 359.660156 378.21875 364.226562 C 374.144531 354.929688 367.621094 347.265625 360.117188 340.414062 C 366.152344 343.839844 372.023438 347.917969 377.242188 352.808594 C 372.347656 343.023438 367.78125 334.867188 360.605469 326.0625 C 369.738281 326.714844 377.894531 332.585938 383.765625 339.433594 C 383.441406 334.378906 380.503906 329.484375 375.285156 324.757812 C 373.652344 323.453125 372.023438 321.820312 370.390625 320.351562 C 369.25 319.539062 365.011719 314.808594 365.664062 314.972656 C 367.128906 315.460938 370.71875 316.765625 372.1875 317.253906 C 374.304688 318.234375 376.425781 319.210938 378.382812 320.191406 L 379.523438 320.84375 C 376.101562 310.894531 370.554688 301.433594 363.050781 292.953125 C 368.925781 295.726562 374.632812 299.148438 380.015625 303.226562 C 376.589844 292.625 369.738281 283.328125 360.933594 276.152344 C 366.152344 278.109375 371.371094 280.71875 376.101562 283.980469 C 376.101562 283.820312 375.9375 283.820312 375.9375 283.65625 C 375.121094 281.863281 374.144531 280.066406 373.328125 278.109375 C 372.347656 276.316406 371.371094 274.523438 370.554688 272.566406 C 369.578125 270.773438 368.433594 268.976562 367.457031 267.019531 C 369.414062 268 371.371094 268.976562 373.164062 269.957031 C 374.957031 271.097656 376.753906 272.238281 378.546875 273.542969 C 380.339844 274.847656 381.972656 276.316406 383.601562 277.621094 C 418.015625 309.097656 420.460938 362.757812 401.542969 403.695312 C 418.996094 394.234375 436.933594 391.464844 459.769531 391.136719 C 490.757812 390.160156 522.722656 399.617188 545.558594 420.820312 C 548.984375 423.917969 552.246094 427.34375 555.179688 430.933594 C 556.648438 432.726562 557.953125 434.519531 559.421875 436.316406 C 559.910156 436.804688 559.746094 437.621094 559.421875 438.109375 C 558.929688 438.761719 538.871094 424.898438 528.757812 420.65625 C 535.445312 427.507812 540.664062 436.316406 543.4375 445.449219 C 543.601562 445.773438 543.4375 446.101562 543.109375 446.425781 C 542.785156 446.753906 533.164062 436.96875 528.105469 433.378906 C 522.398438 429.300781 516.363281 426.039062 509.675781 423.917969 C 515.382812 430.28125 520.113281 437.945312 521.910156 446.101562 C 522.070312 446.425781 521.910156 446.914062 521.582031 447.242188 C 520.113281 447.078125 505.925781 434.683594 499.5625 432.5625 C 500.054688 433.707031 500.542969 435.011719 501.03125 436.152344 L 502.664062 441.042969 C 503.316406 443.328125 503.96875 445.9375 504.621094 448.382812 C 504.945312 450.015625 505.597656 454.09375 505.925781 455.722656 C 505.109375 454.253906 503.152344 450.667969 502.335938 449.363281 C 501.03125 447.40625 499.5625 445.285156 498.257812 443.328125 L 495.324219 439.578125 C 488.3125 431.910156 481.132812 427.832031 475.425781 426.039062 C 483.253906 434.359375 489.289062 444.46875 493.203125 455.070312 C 486.515625 446.261719 478.523438 438.925781 469.066406 433.707031 C 473.304688 439.085938 479.339844 451.972656 479.015625 452.460938 C 478.363281 452.949219 462.867188 440.066406 455.691406 436.804688 C 461.074219 442.675781 465.804688 449.035156 469.554688 455.886719 C 462.050781 447.894531 453.570312 441.535156 444.273438 436.640625 C 444.273438 436.640625 444.273438 436.640625 444.273438 436.804688 C 447.699219 442.347656 449.820312 448.546875 450.308594 454.582031 C 441.339844 442.023438 425.03125 436.96875 410.515625 439.414062 C 412.308594 440.554688 413.9375 441.859375 415.570312 443.164062 C 431.390625 449.6875 445.253906 459.964844 454.386719 474.152344 C 463.847656 489.648438 470.695312 506.773438 473.796875 525.039062 C 478.035156 551.460938 474.773438 579.351562 467.921875 605.933594 C 467.761719 606.425781 467.269531 606.914062 466.617188 606.914062 C 465.964844 606.914062 465.640625 597.617188 465.640625 593.539062 C 464.824219 596.148438 463.683594 598.757812 462.214844 601.367188 C 462.050781 601.695312 461.5625 601.695312 461.5625 601.207031 C 461.238281 592.234375 461.238281 584.078125 461.5625 575.4375 C 458.136719 583.753906 452.917969 591.746094 446.882812 598.433594 C 453.40625 585.222656 456.179688 570.871094 453.898438 557.496094 C 450.144531 566.140625 444.273438 574.621094 437.261719 580.980469 C 436.933594 580.980469 439.871094 568.097656 441.339844 562.878906 C 442.96875 557.496094 446.558594 546.078125 448.027344 540.695312 C 443.460938 549.667969 436.933594 558.472656 428.292969 564.019531 C 428.292969 564.019531 435.46875 553.253906 437.914062 547.710938 C 439.21875 544.9375 440.195312 542.164062 441.175781 539.226562 C 442.15625 536.457031 442.808594 533.519531 443.460938 530.585938 C 444.4375 525.855469 444.273438 521.125 444.765625 516.394531 C 441.664062 529.117188 435.46875 541.839844 427.3125 552.277344 C 430.574219 545.425781 432.695312 538.414062 434 531.398438 C 429.921875 535.640625 425.519531 539.066406 420.953125 542.328125 C 420.625 542.492188 420.300781 542.652344 419.808594 542.492188 C 419.15625 542.328125 424.214844 530.421875 425.683594 525.203125 C 427.3125 520.144531 428.453125 515.417969 428.617188 511.175781 C 425.84375 518.1875 420.460938 524.714844 414.589844 529.441406 C 422.09375 519.984375 425.355469 508.402344 422.910156 497.640625 C 419.15625 505.46875 412.960938 513.132812 405.621094 517.375 C 411.003906 508.890625 411.820312 499.269531 409.699219 490.789062 C 406.273438 497.476562 401.707031 503.511719 396.652344 508.566406 C 395.835938 509.382812 394.53125 508.566406 395.019531 507.585938 C 397.792969 500.902344 400.074219 494.214844 400.726562 487.851562 C 398.117188 492.582031 395.019531 496.988281 391.429688 500.902344 C 393.714844 492.09375 394.039062 483.777344 392.246094 475.945312 C 391.105469 480.675781 389.472656 485.242188 387.679688 489.484375 C 386.703125 473.5 381.484375 459.3125 372.023438 447.730469 C 371.695312 447.40625 371.371094 447.078125 371.207031 446.753906 C 330.105469 568.585938 295.203125 668.402344 295.53125 808.828125 C 295.53125 808.828125 287.863281 809.152344 265.683594 808.828125 C 267.804688 669.214844 305.480469 573.804688 361.257812 439.902344 C 361.09375 439.902344 361.09375 439.902344 360.933594 440.066406 C 360.117188 440.390625 359.300781 440.882812 358.484375 441.371094 L 356.039062 443 C 354.570312 444.144531 352.613281 445.773438 351.308594 447.078125 C 350.65625 447.730469 349.679688 448.710938 349.027344 449.363281 C 345.925781 452.460938 343.316406 456.050781 340.382812 459.800781 C 340.054688 460.289062 339.402344 459.964844 339.730469 459.472656 C 341.851562 454.09375 344.621094 448.382812 348.046875 443.492188 C 348.375 443.164062 348.539062 442.675781 348.863281 442.347656 C 341.035156 445.9375 334.023438 451.808594 328.148438 459.3125 C 330.433594 450.667969 334.347656 442.1875 339.566406 434.683594 C 336.632812 436.476562 333.859375 438.761719 331.085938 441.371094 C 330.269531 442.347656 329.292969 443.164062 328.476562 444.144531 C 327.660156 445.121094 326.84375 446.101562 326.03125 447.242188 C 325.214844 448.21875 324.398438 449.363281 323.582031 450.339844 C 323.582031 450.339844 321.136719 453.601562 321.136719 453.601562 C 320.648438 454.253906 319.832031 453.765625 320.160156 453.113281 C 320.972656 450.503906 321.789062 447.730469 322.929688 445.121094 C 323.421875 443.816406 324.074219 442.511719 324.726562 441.207031 C 325.378906 439.902344 326.191406 438.597656 326.84375 437.292969 C 327.171875 436.804688 327.496094 436.152344 327.824219 435.664062 C 321.625 437.128906 315.917969 440.066406 310.863281 445.449219 C 307.601562 448.875 304.664062 453.113281 302.378906 457.515625 C 303.195312 455.070312 303.847656 452.625 304.992188 450.179688 C 308.253906 442.511719 313.472656 435.664062 319.996094 430.769531 C 308.414062 437.621094 298.464844 448.222656 290.636719 460.453125 C 292.105469 453.765625 294.226562 446.914062 297.160156 440.390625 C 291.78125 445.773438 287.050781 451.972656 282.484375 458.167969 C 281.832031 458.984375 281.992188 450.339844 282.972656 446.914062 C 279.222656 451.15625 271.230469 463.390625 271.230469 462.246094 C 271.066406 458.984375 271.390625 455.398438 272.046875 451.972656 C 263.890625 457.84375 256.386719 464.695312 250.515625 473.988281 C 251.984375 466 255.246094 457.515625 259.324219 450.015625 C 247.582031 456.703125 237.792969 467.792969 230.617188 480.675781 C 232.574219 473.828125 235.183594 466.976562 238.773438 460.453125 C 231.921875 465.183594 217.734375 474.96875 215.777344 475.621094 C 222.625 584.570312 238.773438 700.367188 255.734375 808.828125 L 216.753906 808.828125 C 204.195312 698.246094 192.289062 584.894531 190.332031 472.847656 C 189.355469 416.90625 190.984375 360.800781 195.226562 305.183594 C 197.183594 279.253906 199.792969 253.484375 202.890625 227.714844 C 195.390625 238.640625 192.128906 252.996094 193.921875 265.878906 C 189.355469 255.605469 187.234375 243.699219 188.867188 232.28125 C 177.121094 242.71875 169.785156 259.679688 174.023438 275.828125 C 169.457031 271.261719 165.867188 265.226562 163.585938 258.375 C 161.140625 269.46875 160.488281 281.046875 161.792969 292.625 C 158.855469 284.796875 156.734375 276.480469 155.757812 268 C 153.3125 276.152344 153.472656 297.683594 152.984375 298.007812 C 152.332031 298.335938 151.515625 298.007812 151.191406 297.355469 C 148.089844 290.996094 145.480469 284.144531 144.015625 276.96875 C 141.894531 288.550781 142.382812 300.128906 144.992188 311.871094 C 139.121094 301.433594 135.042969 289.363281 133.574219 277.296875 C 132.597656 278.925781 131.457031 280.394531 130.476562 281.863281 C 129.5 288.710938 129.824219 295.726562 130.964844 303.066406 L 131.945312 308.121094 C 132.597656 310.566406 133.414062 313.175781 134.066406 315.625 C 134.71875 317.253906 136.183594 321.332031 136.835938 322.960938 C 135.695312 321.65625 132.761719 318.070312 131.78125 316.765625 C 130.3125 314.644531 128.519531 312.363281 127.050781 310.078125 L 124.28125 305.347656 C 123.628906 304.207031 122.976562 302.902344 122.320312 301.761719 C 119.550781 308.445312 120.039062 328.34375 119.710938 329.976562 C 119.222656 330.464844 118.40625 330.300781 117.917969 329.8125 C 112.375 322.636719 109.601562 313.503906 108.132812 304.371094 C 102.75 317.742188 101.773438 332.097656 104.21875 346.449219 C 104.21875 346.773438 104.054688 347.265625 103.730469 347.425781 C 103.238281 347.753906 95.574219 334.214844 93.78125 326.875 C 93.128906 323.941406 92.636719 321.003906 92.3125 317.90625 C 88.722656 329.324219 86.605469 355.253906 85.789062 355.417969 C 84.972656 355.582031 84.15625 355.09375 83.996094 354.277344 C 79.101562 335.03125 79.917969 313.992188 85.625 294.257812 C 92.800781 269.46875 107.480469 247.9375 125.257812 229.507812 C 122.976562 224.777344 121.667969 219.722656 121.832031 214.667969 C 121.832031 214.667969 121.832031 214.503906 121.832031 214.503906 C 114.984375 221.515625 109.765625 229.671875 106.992188 238.96875 C 106.5 229.019531 108.296875 219.394531 112.210938 210.261719 C 102.75 217.277344 97.695312 227.0625 94.757812 237.664062 C 94.269531 229.507812 94.921875 221.351562 98.019531 213.851562 C 88.234375 222.007812 82.691406 232.933594 80.894531 245.003906 C 77.796875 232.605469 78.285156 219.886719 83.015625 209.121094 C 75.1875 214.992188 70.621094 222.820312 68.664062 231.792969 L 67.847656 236.03125 C 67.683594 238.152344 67.523438 240.4375 67.359375 242.554688 C 67.359375 244.023438 67.683594 247.9375 67.683594 249.40625 C 66.871094 247.9375 65.074219 243.859375 64.261719 242.394531 C 63.445312 240.109375 62.300781 237.5 61.488281 235.214844 L 60.183594 230.324219 C 59.53125 227.550781 59.039062 224.777344 58.878906 222.007812 C 51.703125 228.367188 46.320312 236.03125 45.503906 245.492188 C 42.894531 236.683594 44.363281 227.878906 47.625 220.210938 C 32.128906 228.203125 22.019531 240.761719 20.875 256.417969 C 17.289062 237.011719 26.421875 220.863281 41.589844 207.980469 Z M 224.910156 217.929688 Z M 311.1875 167.367188 C 297.652344 157.09375 279.058594 157.910156 264.867188 166.0625 C 265.683594 166.226562 266.5 166.554688 267.476562 166.714844 C 281.832031 164.269531 296.671875 164.105469 311.1875 167.367188 Z M 286.398438 217.929688 C 287.210938 220.210938 287.863281 222.496094 288.519531 224.941406 C 290.476562 226.574219 292.433594 228.203125 294.390625 229.996094 C 298.957031 234.238281 303.195312 238.96875 307.273438 244.023438 C 304.339844 232.28125 296.183594 223.472656 286.398438 217.929688 Z M 304.339844 303.71875 C 303.195312 313.339844 301.074219 323.289062 297.652344 331.933594 C 302.378906 333.890625 306.949219 336.171875 311.515625 338.78125 C 311.023438 326.222656 308.90625 314.15625 304.339844 303.71875 Z M 316.242188 327.367188 C 315.753906 331.605469 315.101562 336.011719 314.125 340.25 C 317.058594 342.042969 319.996094 343.839844 322.769531 345.796875 C 320.484375 339.433594 317.875 332.097656 316.242188 327.367188 Z M 336.304688 356.234375 C 334.183594 349.710938 331.902344 343.347656 329.617188 336.988281 C 329.453125 341.390625 328.964844 345.796875 328.476562 350.035156 C 331.25 351.992188 333.859375 353.949219 336.304688 356.234375 Z M 215.941406 472.847656 C 215.941406 473.988281 216.101562 475.132812 216.101562 476.109375 C 218.550781 470.890625 221.320312 466 224.257812 461.105469 C 221.320312 463.0625 218.386719 465.183594 215.613281 467.140625 C 215.777344 469.097656 215.777344 470.890625 215.941406 472.847656 Z M 215.125 455.722656 C 225.726562 443.816406 237.632812 433.378906 250.351562 424.734375 C 252.472656 423.265625 254.757812 421.960938 256.875 420.496094 C 259.160156 419.1875 261.445312 417.882812 263.5625 416.742188 C 276.285156 410.054688 289.984375 405.652344 303.359375 404.183594 C 311.515625 403.207031 319.507812 403.367188 327.335938 404.511719 C 328.148438 404.675781 328.964844 404.835938 329.78125 405 C 320.8125 399.78125 309.71875 397.988281 299.769531 401.738281 C 303.195312 397.171875 308.089844 393.582031 313.632812 390.972656 C 304.011719 389.832031 294.226562 390.160156 284.441406 392.441406 C 290.800781 389.179688 297.652344 386.570312 304.828125 384.9375 C 297.652344 383.632812 279.546875 385.589844 279.058594 385.101562 C 278.730469 384.613281 278.894531 383.796875 279.382812 383.472656 C 284.441406 380.046875 290.148438 377.273438 296.183594 375.316406 C 286.234375 374.5 276.449219 375.96875 266.824219 379.230469 C 275.144531 373.03125 285.09375 368.304688 295.203125 366.019531 C 293.738281 365.367188 292.433594 364.390625 290.964844 363.738281 C 285.09375 363.410156 279.058594 364.390625 273.023438 366.019531 L 268.78125 367.324219 C 266.824219 368.140625 264.542969 369.117188 262.585938 369.933594 C 261.28125 370.585938 257.855469 372.378906 256.550781 373.03125 C 257.691406 371.890625 260.300781 368.957031 261.28125 367.976562 C 262.910156 366.507812 264.707031 364.714844 266.5 363.246094 L 270.25 360.3125 C 271.230469 359.660156 272.207031 359.007812 273.1875 358.355469 C 267.316406 356.558594 250.515625 358.679688 249.046875 358.515625 C 248.558594 358.027344 248.722656 357.375 249.046875 356.886719 C 254.59375 351.339844 262.257812 347.917969 269.761719 345.960938 C 258.019531 342.371094 245.785156 342.859375 233.71875 346.285156 C 233.390625 346.285156 233.066406 346.285156 232.902344 345.960938 C 232.574219 345.632812 243.339844 337.640625 249.375 335.359375 C 251.820312 334.542969 254.265625 333.726562 256.875 333.238281 C 246.929688 331.117188 224.746094 331.445312 224.582031 330.792969 C 224.257812 330.140625 224.746094 329.324219 225.398438 328.996094 C 241.21875 322.960938 259.160156 321.820312 276.449219 325.082031 C 283.460938 326.386719 290.3125 328.507812 297 331.28125 C 297.324219 318.886719 295.042969 307.632812 291.617188 297.03125 C 289.984375 300.945312 288.191406 304.53125 285.90625 307.632812 C 285.253906 308.773438 285.746094 291.8125 284.929688 285.125 C 283.625 289.203125 278.40625 297.683594 278.40625 296.539062 C 278.078125 287.570312 277.917969 278.273438 276.449219 269.628906 C 274.980469 277.785156 272.535156 286.101562 269.761719 293.441406 C 270.578125 276.316406 268.128906 259.519531 262.097656 245.328125 C 264.867188 254.300781 265.359375 264.410156 263.402344 274.035156 C 262.910156 276.96875 261.933594 279.90625 261.117188 282.839844 C 261.769531 276.804688 261.933594 270.933594 260.953125 265.390625 C 259.8125 256.910156 256.386719 250.222656 251.820312 244.839844 C 251.820312 245.65625 251.820312 246.308594 251.65625 247.121094 C 251.496094 248.917969 251.332031 250.546875 251.167969 252.179688 C 250.84375 253.808594 250.515625 255.605469 250.191406 257.234375 C 249.539062 260.496094 248.558594 263.757812 247.742188 266.855469 C 247.582031 267.671875 246.4375 267.671875 246.4375 266.695312 C 246.4375 266.53125 246.277344 261.964844 246.277344 261.800781 C 246.277344 260.171875 246.277344 258.703125 246.113281 257.070312 C 245.949219 255.605469 245.949219 253.972656 245.785156 252.503906 C 245.625 251.035156 245.296875 249.570312 245.132812 248.101562 C 244.316406 243.699219 243.339844 239.621094 241.871094 236.03125 C 242.035156 246.796875 240.078125 257.5625 236.816406 267.507812 C 236.164062 256.417969 233.554688 246.144531 228.824219 237.5 C 228.824219 237.988281 228.824219 238.640625 228.824219 239.132812 C 228.988281 246.144531 227.84375 253.320312 226.378906 260.171875 C 226.214844 260.824219 225.5625 260.824219 225.5625 260.007812 C 225.398438 254.625 225.234375 249.242188 224.421875 244.1875 C 224.257812 243.046875 224.09375 241.578125 223.769531 240.4375 C 223.441406 238.316406 222.625 235.542969 221.972656 233.421875 L 220.832031 230.160156 C 220.34375 229.183594 219.855469 228.203125 219.363281 227.226562 C 219.039062 226.734375 218.710938 226.246094 218.386719 225.757812 C 216.265625 252.667969 214.632812 279.742188 213.820312 306.652344 C 212.023438 356.722656 212.515625 406.304688 215.125 455.722656 Z M 138.144531 218.582031 C 140.753906 216.296875 143.6875 214.175781 146.625 212.058594 C 138.632812 215.320312 132.433594 220.375 129.5 226.898438 C 132.269531 223.964844 135.207031 221.191406 138.144531 218.582031 Z M 138.144531 218.582031 " fill-opacity="1" fill-rule="nonzero"/></g></svg>